<svg version="1.1" id="Layer_1" xmlns="http://www.w3.org/2000/svg" xmlns:xlink="http://www.w3.org/1999/xlink" x="0px" y="0px"
	 width="100%" viewBox="0 0 192 192" enable-background="new 0 0 192 192" xml:space="preserve">
<path fill="#1E338D" opacity="1.000000" stroke="none" 
	d="
M123.000000,193.000000 
	C82.026382,193.000000 41.552761,193.000000 1.039570,193.000000 
	C1.039570,129.068085 1.039570,65.136147 1.039570,1.102101 
	C64.890099,1.102101 128.780411,1.102101 192.835358,1.102101 
	C192.835358,64.999657 192.835358,128.999786 192.835358,193.000000 
	C169.803101,193.000000 146.651550,193.000000 123.000000,193.000000 
M75.652924,42.419178 
	C74.581688,48.521511 76.865440,52.853138 81.820526,54.117344 
	C86.417427,55.290169 90.520172,53.194138 92.230827,48.798859 
	C93.947441,44.388306 92.135887,39.475872 88.006477,37.343597 
	C83.581406,35.058651 79.309578,36.605560 75.652924,42.419178 
M143.917618,93.732422 
	C148.550507,95.411354 152.469421,94.494690 155.240860,90.294273 
	C157.634583,86.666313 157.158569,83.013626 154.562164,79.677658 
	C151.438873,75.664742 145.548065,75.301056 141.768265,78.770309 
	C137.463547,82.721352 138.090591,88.776169 143.917618,93.732422 
M113.048515,157.799561 
	C117.915535,153.791183 119.040985,149.233551 116.250420,144.832947 
	C113.817429,140.996216 108.893044,139.601044 104.934883,141.627014 
	C100.729446,143.779541 98.859993,148.648346 100.546608,153.055847 
	C102.386337,157.863480 106.712288,159.709198 113.048515,157.799561 
M49.933819,102.294609 
	C46.232559,100.137650 42.213585,99.840294 39.498726,103.169777 
	C37.643860,105.444565 36.355400,109.068642 36.593536,111.941971 
	C36.903584,115.682899 39.723644,118.465561 43.969559,118.885132 
	C48.073959,119.290726 51.103699,117.629501 52.953743,113.971809 
	C55.147972,109.633606 53.955376,105.969872 49.933819,102.294609 
M43.802933,135.652374 
	C48.037556,139.682053 51.636726,139.955032 54.876167,136.492233 
	C57.923027,133.235291 57.896671,127.860451 54.089020,125.730255 
	C51.914658,124.513809 48.198143,124.236382 46.000378,125.277077 
	C42.051559,127.146950 41.506378,131.037292 43.802933,135.652374 
M98.064636,50.464909 
	C98.342903,51.410374 98.323845,52.721550 98.954155,53.234009 
	C100.997169,54.895031 103.212433,57.293285 105.487366,57.438911 
	C107.544594,57.570602 110.771774,55.582043 111.647934,53.682140 
	C112.617287,51.580173 112.324394,47.976734 111.048676,46.033047 
	C109.910889,44.299500 106.694824,43.178219 104.374504,43.141575 
	C100.496170,43.080330 98.929581,46.278362 98.064636,50.464909 
M150.030273,61.462757 
	C146.310883,55.533741 140.384995,54.419365 137.522766,59.563709 
	C136.267654,61.819546 136.444260,65.602036 137.387436,68.171234 
	C138.645142,71.597198 142.400497,71.939888 145.505783,70.926163 
	C149.538574,69.609627 150.811066,66.274338 150.030273,61.462757 
M50.342525,95.087059 
	C55.726463,93.624779 58.267895,89.713593 56.482517,85.389748 
	C54.981182,81.753792 52.244804,79.960442 48.224350,80.752083 
	C44.421284,81.500923 42.362186,84.171921 42.462215,87.777321 
	C42.579834,92.016678 44.868908,94.917587 50.342525,95.087059 
M133.770920,151.210251 
	C134.461548,150.505310 135.279846,149.886017 135.820374,149.080353 
	C137.966003,145.882263 137.804916,142.232117 134.921844,140.196671 
	C132.750168,138.663452 128.607147,137.736084 126.560883,138.826691 
	C124.515228,139.916977 122.999702,143.853470 123.008499,146.536514 
	C123.023773,151.194229 127.029259,152.881668 133.770920,151.210251 
M136.536819,104.421120 
	C135.434906,109.767067 136.924286,113.265701 140.971146,114.481934 
	C144.647644,115.586845 147.732437,114.407471 149.425339,111.055237 
	C151.266312,107.409760 150.569946,103.880547 147.197174,101.304359 
	C143.934723,98.812439 140.422882,99.720955 136.536819,104.421120 
M58.440083,56.011345 
	C64.202644,58.954861 69.256363,57.169170 70.036949,51.853687 
	C70.568504,48.233959 69.671951,44.567856 66.020874,43.734550 
	C63.429062,43.143013 59.543701,43.925117 57.630257,45.645325 
	C54.638000,48.335392 55.037544,52.238121 58.440083,56.011345 
M80.913948,148.414597 
	C84.559952,152.839432 88.994904,153.661270 92.258560,150.392899 
	C95.052444,147.594986 95.518349,144.389954 93.358223,140.971970 
	C91.236404,137.614594 87.890121,136.952423 84.659386,138.292755 
	C80.663200,139.950623 79.167992,143.344086 80.913948,148.414597 
M68.012863,136.344788 
	C72.036690,139.689896 76.433121,139.014053 76.911919,134.755096 
	C77.111839,132.976791 76.172462,130.417648 74.839790,129.322418 
	C73.736511,128.415710 70.391235,128.395294 69.645035,129.302704 
	C68.337624,130.892563 68.260712,133.494324 68.012863,136.344788 
M42.841557,60.822151 
	C43.425053,66.213417 46.899071,68.812012 50.233398,66.095772 
	C51.628410,64.959358 52.780251,62.498489 52.608044,60.783878 
	C52.466419,59.373741 50.140667,57.065060 48.898266,57.137329 
	C46.879044,57.254780 44.954060,58.992374 42.841557,60.822151 
M150.074768,132.706467 
	C149.103424,129.425293 146.969696,127.259354 143.623688,128.742172 
	C141.971176,129.474518 139.972061,132.324844 140.259125,133.803452 
	C140.622192,135.673615 142.969009,138.194305 144.793304,138.510071 
	C147.764084,139.024292 149.965317,136.919403 150.074768,132.706467 
M58.258694,151.490417 
	C63.549545,152.455154 67.159134,149.962631 65.846191,145.973114 
	C65.330086,144.404877 63.436962,142.560501 61.897270,142.264282 
	C60.368561,141.970169 57.362778,143.122879 57.023476,144.249207 
	C56.424057,146.239044 57.356850,148.690445 58.258694,151.490417 
M123.336823,66.095581 
	C126.642967,61.931099 125.935425,57.479416 121.699211,57.016914 
	C120.033714,56.835083 117.502586,57.671459 116.640778,58.922535 
	C115.722237,60.255959 115.505234,63.479275 116.426880,64.352577 
	C117.905136,65.753281 120.573097,65.898430 123.336823,66.095581 
M62.737743,77.143440 
	C66.007095,75.591728 67.239716,72.891602 65.213554,69.996185 
	C64.183464,68.524185 60.954189,67.080101 59.662395,67.674271 
	C57.941097,68.466003 56.162548,71.254646 56.162071,73.185951 
	C56.161285,76.351784 58.710583,77.876045 62.737743,77.143440 
M126.956413,124.174301 
	C128.062332,127.248337 130.394577,129.151535 133.331451,127.678093 
	C135.055176,126.813293 136.911194,123.814362 136.650513,122.085594 
	C136.403763,120.449326 133.602585,118.286964 131.689194,118.015213 
	C128.363861,117.542908 126.790474,120.033813 126.956413,124.174301 
M134.508179,43.955074 
	C131.716476,42.554722 129.083710,42.938343 127.760109,45.750191 
	C127.056969,47.243927 127.021332,49.997112 127.958000,51.073997 
	C129.083908,52.368450 131.670105,53.214100 133.436951,52.958839 
	C137.121780,52.426491 137.750168,48.545071 134.508179,43.955074 
M152.963058,117.635689 
	C152.302689,119.074562 151.345047,120.475739 151.154968,121.974274 
	C151.094406,122.451698 153.188431,123.808228 154.088058,123.640976 
	C155.104248,123.452049 156.790985,121.618980 156.601181,121.168022 
	C156.006516,119.755226 154.665970,118.656380 152.963058,117.635689 
M36.416267,73.286308 
	C37.163242,74.831879 37.839039,76.424446 38.776321,77.844398 
	C38.862312,77.974670 41.105953,77.241112 41.478916,76.481895 
	C41.961933,75.498650 41.870544,73.141655 41.505051,73.026176 
	C40.085262,72.577538 38.458950,72.782463 36.416267,73.286308 
M131.409149,76.037300 
	C130.791504,74.613762 130.358398,73.042564 129.422913,71.873337 
	C129.196701,71.590614 126.625244,72.382431 126.348793,73.129997 
	C125.935524,74.247566 126.162086,76.454758 126.918068,76.933990 
	C127.845894,77.522171 129.599365,76.807922 131.409149,76.037300 
M116.439674,40.771633 
	C118.205582,40.826874 119.971497,40.882114 121.737404,40.937355 
	C121.151604,39.477928 120.565804,38.018501 119.980003,36.559074 
	C118.704453,37.743797 117.428909,38.928516 116.439674,40.771633 
M72.629539,158.823532 
	C73.943596,157.649597 75.257652,156.475662 76.571709,155.301727 
	C75.286804,154.571136 74.001900,153.840546 72.716988,153.109970 
	C72.476242,154.861725 72.235504,156.613464 72.629539,158.823532 
M65.795174,118.100632 
	C64.278206,118.582115 62.761242,119.063599 61.244278,119.545090 
	C61.628223,120.701042 61.729137,122.131523 62.492954,122.919029 
	C63.025928,123.468529 65.241600,123.455734 65.369469,123.144730 
	C65.948853,121.735558 66.053360,120.131134 65.795174,118.100632 
M117.902313,133.921661 
	C119.284851,133.195023 120.824005,132.638077 121.932770,131.614792 
	C122.189415,131.377930 121.225571,129.208786 120.353615,128.566406 
	C119.739426,128.113922 117.524376,128.528061 117.421005,128.921890 
	C117.038857,130.377960 117.237045,131.986359 117.902313,133.921661 
M76.427544,63.051311 
	C74.959679,62.591763 73.491814,62.132214 72.023949,61.672665 
	C71.676308,62.836300 70.932388,64.067368 71.115051,65.140762 
	C71.245056,65.904747 73.089142,67.163132 73.363632,66.981949 
	C74.630676,66.145561 75.615791,64.882080 76.427544,63.051311 
z"/>
<path fill="#F8F9FC" opacity="1.000000" stroke="none" 
	d="
M75.806580,42.062466 
	C79.309578,36.605560 83.581406,35.058651 88.006477,37.343597 
	C92.135887,39.475872 93.947441,44.388306 92.230827,48.798859 
	C90.520172,53.194138 86.417427,55.290169 81.820526,54.117344 
	C76.865440,52.853138 74.581688,48.521511 75.806580,42.062466 
z"/>
<path fill="#F8F9FC" opacity="1.000000" stroke="none" 
	d="
M143.597153,93.534012 
	C138.090591,88.776169 137.463547,82.721352 141.768265,78.770309 
	C145.548065,75.301056 151.438873,75.664742 154.562164,79.677658 
	C157.158569,83.013626 157.634583,86.666313 155.240860,90.294273 
	C152.469421,94.494690 148.550507,95.411354 143.597153,93.534012 
z"/>
<path fill="#F8F9FC" opacity="1.000000" stroke="none" 
	d="
M112.687714,157.940811 
	C106.712288,159.709198 102.386337,157.863480 100.546608,153.055847 
	C98.859993,148.648346 100.729446,143.779541 104.934883,141.627014 
	C108.893044,139.601044 113.817429,140.996216 116.250420,144.832947 
	C119.040985,149.233551 117.915535,153.791183 112.687714,157.940811 
z"/>
<path fill="#FAFBFD" opacity="1.000000" stroke="none" 
	d="
M50.222538,102.563965 
	C53.955376,105.969872 55.147972,109.633606 52.953743,113.971809 
	C51.103699,117.629501 48.073959,119.290726 43.969559,118.885132 
	C39.723644,118.465561 36.903584,115.682899 36.593536,111.941971 
	C36.355400,109.068642 37.643860,105.444565 39.498726,103.169777 
	C42.213585,99.840294 46.232559,100.137650 50.222538,102.563965 
z"/>
<path fill="#F6F7FB" opacity="1.000000" stroke="none" 
	d="
M43.576996,135.353729 
	C41.506378,131.037292 42.051559,127.146950 46.000378,125.277077 
	C48.198143,124.236382 51.914658,124.513809 54.089020,125.730255 
	C57.896671,127.860451 57.923027,133.235291 54.876167,136.492233 
	C51.636726,139.955032 48.037556,139.682053 43.576996,135.353729 
z"/>
<path fill="#F6F7FA" opacity="1.000000" stroke="none" 
	d="
M98.075546,50.078606 
	C98.929581,46.278362 100.496170,43.080330 104.374504,43.141575 
	C106.694824,43.178219 109.910889,44.299500 111.048676,46.033047 
	C112.324394,47.976734 112.617287,51.580173 111.647934,53.682140 
	C110.771774,55.582043 107.544594,57.570602 105.487366,57.438911 
	C103.212433,57.293285 100.997169,54.895031 98.954155,53.234009 
	C98.323845,52.721550 98.342903,51.410374 98.075546,50.078606 
z"/>
<path fill="#F8F9FC" opacity="1.000000" stroke="none" 
	d="
M150.085327,61.820663 
	C150.811066,66.274338 149.538574,69.609627 145.505783,70.926163 
	C142.400497,71.939888 138.645142,71.597198 137.387436,68.171234 
	C136.444260,65.602036 136.267654,61.819546 137.522766,59.563709 
	C140.384995,54.419365 146.310883,55.533741 150.085327,61.820663 
z"/>
<path fill="#F6F7FB" opacity="1.000000" stroke="none" 
	d="
M49.943985,95.118378 
	C44.868908,94.917587 42.579834,92.016678 42.462215,87.777321 
	C42.362186,84.171921 44.421284,81.500923 48.224350,80.752083 
	C52.244804,79.960442 54.981182,81.753792 56.482517,85.389748 
	C58.267895,89.713593 55.726463,93.624779 49.943985,95.118378 
z"/>
<path fill="#F8F9FC" opacity="1.000000" stroke="none" 
	d="
M133.469070,151.423172 
	C127.029259,152.881668 123.023773,151.194229 123.008499,146.536514 
	C122.999702,143.853470 124.515228,139.916977 126.560883,138.826691 
	C128.607147,137.736084 132.750168,138.663452 134.921844,140.196671 
	C137.804916,142.232117 137.966003,145.882263 135.820374,149.080353 
	C135.279846,149.886017 134.461548,150.505310 133.469070,151.423172 
z"/>
<path fill="#F9FAFC" opacity="1.000000" stroke="none" 
	d="
M136.739685,104.078926 
	C140.422882,99.720955 143.934723,98.812439 147.197174,101.304359 
	C150.569946,103.880547 151.266312,107.409760 149.425339,111.055237 
	C147.732437,114.407471 144.647644,115.586845 140.971146,114.481934 
	C136.924286,113.265701 135.434906,109.767067 136.739685,104.078926 
z"/>
<path fill="#F8F9FC" opacity="1.000000" stroke="none" 
	d="
M58.170570,55.731331 
	C55.037544,52.238121 54.638000,48.335392 57.630257,45.645325 
	C59.543701,43.925117 63.429062,43.143013 66.020874,43.734550 
	C69.671951,44.567856 70.568504,48.233959 70.036949,51.853687 
	C69.256363,57.169170 64.202644,58.954861 58.170570,55.731331 
z"/>
<path fill="#F9FAFC" opacity="1.000000" stroke="none" 
	d="
M80.774879,148.047379 
	C79.167992,143.344086 80.663200,139.950623 84.659386,138.292755 
	C87.890121,136.952423 91.236404,137.614594 93.358223,140.971970 
	C95.518349,144.389954 95.052444,147.594986 92.258560,150.392899 
	C88.994904,153.661270 84.559952,152.839432 80.774879,148.047379 
z"/>
<path fill="#F3F5F9" opacity="1.000000" stroke="none" 
	d="
M67.840584,136.008484 
	C68.260712,133.494324 68.337624,130.892563 69.645035,129.302704 
	C70.391235,128.395294 73.736511,128.415710 74.839790,129.322418 
	C76.172462,130.417648 77.111839,132.976791 76.911919,134.755096 
	C76.433121,139.014053 72.036690,139.689896 67.840584,136.008484 
z"/>
<path fill="#F5F6FA" opacity="1.000000" stroke="none" 
	d="
M42.915428,60.434139 
	C44.954060,58.992374 46.879044,57.254780 48.898266,57.137329 
	C50.140667,57.065060 52.466419,59.373741 52.608044,60.783878 
	C52.780251,62.498489 51.628410,64.959358 50.233398,66.095772 
	C46.899071,68.812012 43.425053,66.213417 42.915428,60.434139 
z"/>
<path fill="#F6F7FB" opacity="1.000000" stroke="none" 
	d="
M150.093552,133.100494 
	C149.965317,136.919403 147.764084,139.024292 144.793304,138.510071 
	C142.969009,138.194305 140.622192,135.673615 140.259125,133.803452 
	C139.972061,132.324844 141.971176,129.474518 143.623688,128.742172 
	C146.969696,127.259354 149.103424,129.425293 150.093552,133.100494 
z"/>
<path fill="#F6F7FB" opacity="1.000000" stroke="none" 
	d="
M57.953499,151.219543 
	C57.356850,148.690445 56.424057,146.239044 57.023476,144.249207 
	C57.362778,143.122879 60.368561,141.970169 61.897270,142.264282 
	C63.436962,142.560501 65.330086,144.404877 65.846191,145.973114 
	C67.159134,149.962631 63.549545,152.455154 57.953499,151.219543 
z"/>
<path fill="#F6F7FA" opacity="1.000000" stroke="none" 
	d="
M123.037537,66.334900 
	C120.573097,65.898430 117.905136,65.753281 116.426880,64.352577 
	C115.505234,63.479275 115.722237,60.255959 116.640778,58.922535 
	C117.502586,57.671459 120.033714,56.835083 121.699211,57.016914 
	C125.935425,57.479416 126.642967,61.931099 123.037537,66.334900 
z"/>
<path fill="#F5F6FA" opacity="1.000000" stroke="none" 
	d="
M62.389267,77.279404 
	C58.710583,77.876045 56.161285,76.351784 56.162071,73.185951 
	C56.162548,71.254646 57.941097,68.466003 59.662395,67.674271 
	C60.954189,67.080101 64.183464,68.524185 65.213554,69.996185 
	C67.239716,72.891602 66.007095,75.591728 62.389267,77.279404 
z"/>
<path fill="#F7F8FB" opacity="1.000000" stroke="none" 
	d="
M126.915283,123.770576 
	C126.790474,120.033813 128.363861,117.542908 131.689194,118.015213 
	C133.602585,118.286964 136.403763,120.449326 136.650513,122.085594 
	C136.911194,123.814362 135.055176,126.813293 133.331451,127.678093 
	C130.394577,129.151535 128.062332,127.248337 126.915283,123.770576 
z"/>
<path fill="#F6F7FA" opacity="1.000000" stroke="none" 
	d="
M134.820404,44.179626 
	C137.750168,48.545071 137.121780,52.426491 133.436951,52.958839 
	C131.670105,53.214100 129.083908,52.368450 127.958000,51.073997 
	C127.021332,49.997112 127.056969,47.243927 127.760109,45.750191 
	C129.083710,42.938343 131.716476,42.554722 134.820404,44.179626 
z"/>
<path fill="#E4E7F2" opacity="1.000000" stroke="none" 
	d="
M153.288727,117.535797 
	C154.665970,118.656380 156.006516,119.755226 156.601181,121.168022 
	C156.790985,121.618980 155.104248,123.452049 154.088058,123.640976 
	C153.188431,123.808228 151.094406,122.451698 151.154968,121.974274 
	C151.345047,120.475739 152.302689,119.074562 153.288727,117.535797 
z"/>
<path fill="#F5F6FA" opacity="1.000000" stroke="none" 
	d="
M36.662888,73.015228 
	C38.458950,72.782463 40.085262,72.577538 41.505051,73.026176 
	C41.870544,73.141655 41.961933,75.498650 41.478916,76.481895 
	C41.105953,77.241112 38.862312,77.974670 38.776321,77.844398 
	C37.839039,76.424446 37.163242,74.831879 36.662888,73.015228 
z"/>
<path fill="#EDEEF6" opacity="1.000000" stroke="none" 
	d="
M131.202530,76.347015 
	C129.599365,76.807922 127.845894,77.522171 126.918068,76.933990 
	C126.162086,76.454758 125.935524,74.247566 126.348793,73.129997 
	C126.625244,72.382431 129.196701,71.590614 129.422913,71.873337 
	C130.358398,73.042564 130.791504,74.613762 131.202530,76.347015 
z"/>
<path fill="#F2F3F9" opacity="1.000000" stroke="none" 
	d="
M116.296516,40.442436 
	C117.428909,38.928516 118.704453,37.743797 119.980003,36.559074 
	C120.565804,38.018501 121.151604,39.477928 121.737404,40.937355 
	C119.971497,40.882114 118.205582,40.826874 116.296516,40.442436 
z"/>
<path fill="#F2F3F9" opacity="1.000000" stroke="none" 
	d="
M72.312149,158.594376 
	C72.235504,156.613464 72.476242,154.861725 72.716988,153.109970 
	C74.001900,153.840546 75.286804,154.571136 76.571709,155.301727 
	C75.257652,156.475662 73.943596,157.649597 72.312149,158.594376 
z"/>
<path fill="#F3F5F9" opacity="1.000000" stroke="none" 
	d="
M66.061996,118.348816 
	C66.053360,120.131134 65.948853,121.735558 65.369469,123.144730 
	C65.241600,123.455734 63.025928,123.468529 62.492954,122.919029 
	C61.729137,122.131523 61.628223,120.701042 61.244278,119.545090 
	C62.761242,119.063599 64.278206,118.582115 66.061996,118.348816 
z"/>
<path fill="#EDEEF6" opacity="1.000000" stroke="none" 
	d="
M117.559708,133.729584 
	C117.237045,131.986359 117.038857,130.377960 117.421005,128.921890 
	C117.524376,128.528061 119.739426,128.113922 120.353615,128.566406 
	C121.225571,129.208786 122.189415,131.377930 121.932770,131.614792 
	C120.824005,132.638077 119.284851,133.195023 117.559708,133.729584 
z"/>
<path fill="#EDEEF6" opacity="1.000000" stroke="none" 
	d="
M76.564758,63.411503 
	C75.615791,64.882080 74.630676,66.145561 73.363632,66.981949 
	C73.089142,67.163132 71.245056,65.904747 71.115051,65.140762 
	C70.932388,64.067368 71.676308,62.836300 72.023949,61.672665 
	C73.491814,62.132214 74.959679,62.591763 76.564758,63.411503 
z"/>
</svg>